<?xml version="1.0" encoding="utf-8"?>
<!-- Generator: Adobe Illustrator 23.0.1, SVG Export Plug-In . SVG Version: 6.00 Build 0)  -->
<!DOCTYPE svg PUBLIC "-//W3C//DTD SVG 1.1//EN" "http://www.w3.org/Graphics/SVG/1.1/DTD/svg11.dtd" [
	<!ENTITY st0 "fill:#FFFFFF;">
]>
<svg version="1.1" id="Layer_1" xmlns="http://www.w3.org/2000/svg" xmlns:xlink="http://www.w3.org/1999/xlink" x="0px" y="0px"
	 viewBox="0 0 1247.3 403.2" style="enable-background:new 0 0 1247.3 403.2;" xml:space="preserve">
<g>
	<path style="&st0;" d="M533.6,154h9.1c3.3,0,9.7,0,14.3-3c5-3.2,8-9.4,8-16.7c0-3.2-0.5-7.7-3.8-11.7c-5.2-6.3-12.8-6.9-21.8-6.9
		H520l-0.1,62.7h13.7V154z M533.3,125.8h6.8c3.8,0,11,0,11,8.5c0,9.6-8,9.6-12.4,9.6h-5.4V125.8z"/>
	<polygon style="&st0;" points="679.4,178.4 692.3,178.4 692.3,115.5 679.4,115.5 	"/>
	<path style="&st0;" d="M572.7,161.9c0,2.1,0,8.2,2.9,11.8c2.4,3.2,7.3,5.9,13.2,5.9c8.4,0,11.7-5.1,13-7l0.4,5.8h12.5
		c-0.1-1.2-0.2-2-0.3-3.2c0-1.1-0.1-2.2-0.3-11.7v-29h-13.2v22.2c0,7.5,0,13.7-8.3,13.7c-6.9,0-6.9-5.9-6.9-9.7v-26.2l0,0l-13,0.1
		V161.9z"/>
	<path style="&st0;" d="M547.5,75.2c12.7,0,27.6-6,27.6-24.7V11.3H562v37.6c0,6.4-0.7,8.8-2,10.7c-3.5,5.4-10,5.5-12.2,5.5
		c-13.2,0-13.7-8.6-13.7-15.5V11.3l-13.5-0.1v37.6c0,5.8,0.2,10.7,3.2,15.5C529.8,73.8,541.2,75.2,547.5,75.2z"/>
	<path style="&st0;" d="M685.4,75.6c16,0,23.1-11.1,23.1-23.5c0-12.3-6.9-23.1-22.8-23.1C668.4,29,663,41.8,663,52.5
		C663,67.9,672.9,75.6,685.4,75.6z M685.7,37.6c8.6,0,9.7,8.1,9.7,13.9c0,11.7-3.8,15.1-9.5,15.1c-6.4,0-9.7-4.3-9.7-14.1
		C676.2,48.5,676.3,37.6,685.7,37.6z"/>
	<path style="&st0;" d="M587.7,74.1h13V48.3c0-3.4,0.8-5.6,1.6-6.7c1.4-2.1,3.9-3.4,6.7-3.4c3.3,0,5.3,1.8,6.3,3.7
		c0.7,1.4,0.7,3,0.7,4.8V74h13.1V50.2c0-8.1-0.2-10.4-1.2-13.1c-1.1-3.1-4.8-8.3-13.4-8.3c-9.6,0-13.1,5.7-14.3,7.7l-0.3-6.6h-12.4
		c0.3,3,0.3,7.8,0.3,8L587.7,74.1z"/>
	<rect x="568.3" y="238.8" style="&st0;" width="12.9" height="44"/>
	<rect x="567.9" y="220" style="&st0;" width="13.7" height="11.2"/>
	<path style="&st0;" d="M535.6,330.2l-12.8,4.7v8.6h-8.4v8.5h8.4v24.2c0,3.6,0,11.8,13,11.8c2.1,0,5.8-0.3,10-1.4h0V378
		c-1.6,0.2-2.5,0.3-4.4,0.3c-5.7,0-5.7-2.5-5.8-6.5V352H546v-8.5h-10.4V330.2z"/>
	<path style="&st0;" d="M832.5,149.4c0-2,0-7.2-3-10.8c-4.4-5.1-12-5.7-15.7-5.7c-4.2,0-9.3,0.7-13.3,3.6c-4.7,3.4-4.9,8.1-5,10.4
		h12.6c0-1,0-2.4,1-3.9c1.2-1.6,3.1-2.4,4.9-2.4c1.2,0,4.6,0.5,5.7,3.7c0.5,1.5,0.6,2.9,0.6,5.8c-4.3,0-12,0-17.4,2.4
		c-8.1,3.8-9.3,10.2-9.3,13.7s1.2,7.1,3.8,9.7c1.8,1.7,4.6,3.5,11,3.5c2.4,0,8.2,0,13.1-7c0,1.3,0,3.3,0.4,6v-0.2h11.7
		c-0.7-3.6-1-7.4-1-11.1L832.5,149.4z M817.8,168.6c-1.2,1.4-3.2,2.5-5.5,2.5c-4.3,0-6.3-3.3-6.3-6.3c0-5.2,5.9-7.8,14.2-7.1
		C820.2,162.4,820.1,165.8,817.8,168.6z"/>
	<path style="&st0;" d="M864.1,232.9v6h-6.5v9.1h6.5v0v34.7h12.8v-34.8h8.2v-9.1h-8.2v-5.1c0-2.2,0-5.7,6.6-5.7c1,0,1.4,0.1,2.7,0.3
		v-9c-3.7-0.4-6.1-0.4-7-0.4C866.7,218.9,864.1,225.2,864.1,232.9z"/>
	<path style="&st0;" d="M847.3,351.4L847,343h-12.1c0.3,2.6,0.6,8.9,0.6,11l0.1,33.2h12.9v-21.7c0-5.5,0.7-12.2,13.8-11v-11.6
		C851.8,342.4,849,347.7,847.3,351.4z"/>
	<path style="&st0;" d="M911.2,237.8c-17.3,0-22.7,12.8-22.7,23.5c0,15.4,9.9,23.1,22.4,23.1c16,0,23.1-11.1,23.1-23.5
		C934,248.6,927.1,237.8,911.2,237.8z M911.4,275.4c-6.4,0-9.7-4.3-9.7-14.1c0-4,0.1-14.9,9.5-14.9c8.6,0,9.7,8.1,9.7,13.9
		C920.9,272,917.1,275.4,911.4,275.4z"/>
	<path style="&st0;" d="M810.2,237.3c-4.8,0-9,1.4-12.4,3.7c-7.4,5.1-9.1,13.7-9.1,20.8c0,7,1.7,12.9,5.7,17.1
		c4.6,4.8,11.8,5.5,15.5,5.5c6.4,0,12.2-1.7,15.4-5.1c3.6-3.8,4-7.5,4.2-9.6h-11.7c-1.3,4.9-4.5,6.1-7.7,6.1c-9,0-9-8.8-9-11.7h0
		l29.4-0.1c0.2-3.7,0.4-10.1-2.6-16.1C823.9,239.7,816.5,237.3,810.2,237.3z M801.4,256c0.3-5.1,2.6-9.8,8.3-9.8
		c7.5,0,7.7,7.8,7.7,9.8H801.4z"/>
	<path style="&st0;" d="M749.9,342.2c-17.3,0-22.7,12.8-22.7,23.5c0,15.4,9.9,23.1,22.4,23.1c16,0,23.1-11.1,23.1-23.5
		C772.7,353,765.8,342.2,749.9,342.2z M750.1,379.8c-6.4,0-9.7-4.3-9.7-14.1c0-4,0.1-14.9,9.5-14.9c8.6,0,9.7,8.1,9.7,13.9
		C759.6,376.4,755.8,379.8,750.1,379.8z"/>
	<path style="&st0;" d="M770.5,266.9c-0.5,7.8-4.5,8.4-5.9,8.4c-1,0-2.3-0.2-3.5-1.5c-2.9-3.2-3.2-11.1-3.2-13.5
		c0-4.8,0.7-14,6.8-14c5,0,5.5,6.5,5.7,8.1h0l12.4,0.1c-0.1-11.9-9.7-16.4-17.9-16.4c-5.8,0-20.5,2.8-20.5,22.8
		c0,7,1.8,12.9,5.6,17.3c4,4.5,9.2,5.8,15,5.8c5.5,0,9.4-1.4,12.5-4.1c5.1-4.3,5.5-9.6,5.7-13H770.5z"/>
	<path style="&st0;" d="M939.1,115.6h-12.9v24.3c-1.2-1.6-4.5-6-12.4-6c-11.5,0-19.4,9.1-19.4,23.6c0,13.7,7,21.8,18.7,21.8
		c1.9,0,5.3-0.2,8.5-2.3c2.7-1.8,3.5-3.4,4.4-5l0.3,6.4h13.1c-0.1-1.6-0.3-4.5-0.3-7.1V115.6z M924.4,165.9c-1.4,2.7-4.5,5-8.2,5
		c-6.4,0-8.8-6.5-8.9-13.9c0-4.4,1-14.8,9.6-14.8c5.9,0,9.6,4.7,9.6,13.3C926.5,157.7,926.3,162.2,924.4,165.9z"/>
	<path style="&st0;" d="M803.1,342.2c-17.4,0-22.7,12.8-22.7,23.5c0,15.4,9.9,23.1,22.4,23.1c16,0,23.1-11.1,23.1-23.5
		C825.9,353,819,342.2,803.1,342.2z M803.2,379.8c-6.3,0-9.6-4.3-9.7-14.1c0-4,0.1-14.9,9.5-14.9c8.6,0,9.7,8.1,9.7,13.9
		C812.7,376.4,808.9,379.8,803.2,379.8z"/>
	<path style="&st0;" d="M1039.3,142.6l-0.3-8.4h-12.1c0.3,2.6,0.6,8.9,0.6,11l0.1,33.2h12.9v-21.7c0-5.5,0.7-12.2,13.8-11v-11.6
		C1043.8,133.6,1041,138.9,1039.3,142.6z"/>
	<path style="&st0;" d="M1191,121.5l-12.8,4.7v8.6h-8.4v8.5h8.4v24.1c0,3.6,0,11.8,13,11.8c2.1,0,5.8-0.3,10-1.4h0v-8.5
		c-1.6,0.2-2.5,0.3-4.4,0.3c-5.7,0-5.7-2.5-5.8-6.5v-19.8h10.4v-8.5H1191V121.5z"/>
	<path style="&st0;" d="M1163.9,149.4c0-2,0-7.2-3-10.8c-4.4-5.1-12-5.7-15.7-5.7c-4.2,0-9.3,0.7-13.3,3.6c-4.7,3.4-4.9,8.1-5,10.4
		h12.6c0-1,0-2.4,1-3.9c1.2-1.6,3.1-2.4,4.9-2.4c1.2,0,4.6,0.5,5.7,3.7c0.5,1.5,0.6,2.9,0.6,5.8c-4.3,0-12,0-17.4,2.4
		c-8.1,3.8-9.3,10.2-9.3,13.7s1.2,7.1,3.8,9.7c1.8,1.7,4.6,3.5,11,3.5c2.4,0,8.2,0,13.1-7c0,1.3,0,3.3,0.4,6h0v-0.2h11.7
		c-0.7-3.6-1-7.4-1-11.1L1163.9,149.4z M1149.3,168.6c-1.2,1.4-3.2,2.5-5.5,2.5c-4.3,0-6.3-3.3-6.3-6.3h0c0-5.2,5.9-7.8,14.2-7.1
		C1151.7,162.4,1151.6,165.8,1149.3,168.6z"/>
	<polygon style="&st0;" points="1100.7,164.3 1090.8,134.5 1077,134.5 1093.1,178.4 1107.4,178.4 1123.2,134.5 1110.8,134.5 	"/>
	<path style="&st0;" d="M1244.6,143.5c-4-8.2-11.4-10.6-17.7-10.6c-4.8,0-9,1.4-12.4,3.7c-7.4,5.1-9.1,13.7-9.1,20.8
		c0,7,1.7,12.9,5.7,17.1c4.6,4.8,11.8,5.5,15.5,5.5c6.4,0,12.2-1.7,15.4-5.1c3.6-3.8,4-7.5,4.2-9.6h-11.7c-1.3,4.9-4.5,6.1-7.7,6.1
		c-9,0-9-8.8-9-11.7h0l29.4-0.1C1247.4,155.9,1247.6,149.5,1244.6,143.5z M1218.1,151.6c0.3-5.1,2.6-9.8,8.3-9.8
		c7.5,0,7.7,7.8,7.7,9.8H1218.1z"/>
	<path style="&st0;" d="M955.5,247l-0.3-8.4h-12.1c0.3,2.6,0.6,8.9,0.6,11v0l0.1,33.2h12.9v-21.7c0-5.5,0.7-12.2,13.8-11v-11.6
		C960,238,957.2,243.3,955.5,247z"/>
	<path style="&st0;" d="M993.8,115.7h-19.4l-0.1,62.7H988V154h9.1c3.3,0,9.7,0,14.3-3c5-3.2,8-9.4,8-16.7c0-3.2-0.5-7.7-3.8-11.7
		C1010.4,116.3,1002.8,115.7,993.8,115.7z M993.1,143.9h-5.4v-18.1h6.8c3.8,0,11,0,11,8.5C1005.5,143.9,997.5,143.9,993.1,143.9z"/>
	<path style="&st0;" d="M698.9,324.5h-19.4l-0.1,62.7h13.7v-24.4h9.1c3.3,0,9.7,0,14.3-3c5-3.2,8-9.4,8-16.7c0-3.2-0.5-7.7-3.8-11.7
		C715.5,325.1,707.9,324.5,698.9,324.5z M698.2,352.7h-5.4v-18.1h6.8c3.8,0,11,0,11,8.5C710.6,352.7,702.6,352.7,698.2,352.7z"/>
	<rect x="1057.4" y="115.6" style="&st0;" width="13.7" height="11.2"/>
	<rect x="1057.9" y="134.4" style="&st0;" width="12.9" height="44"/>
	<path style="&st0;" d="M735.5,282.8V259c0-8.1-0.2-10.4-1.2-13.1c-1.1-3.1-4.8-8.3-13.4-8.3c-9.6,0-13.1,5.7-14.3,7.7l-0.3-6.6
		h-12.4c0.3,3,0.3,7.8,0.3,8h0l-0.1,36.2h13v-25.8c0-3.4,0.8-5.6,1.6-6.7c1.4-2.1,3.9-3.4,6.7-3.4c3.3,0,5.3,1.8,6.3,3.7
		c0.7,1.4,0.7,3,0.7,4.8v27.3H735.5z"/>
	<rect x="807.8" y="11.2" style="&st0;" width="13.7" height="11.2"/>
	<rect x="808.3" y="30" style="&st0;" width="12.9" height="44"/>
	<polygon style="&st0;" points="772.8,50.1 786.4,74 801.6,74 785.6,48.9 800.7,29.8 786.2,29.8 772.9,48.2 772.9,11.1 760.1,11.1 
		760.1,11.1 760,74 772.8,74 	"/>
	<path style="&st0;" d="M682.7,271.5l-0.1-17.7c0-2,0-7.2-3-10.8c-4.4-5.1-12-5.7-15.7-5.7c-4.2,0-9.3,0.7-13.3,3.6
		c-4.7,3.4-4.9,8.1-5,10.4h12.6c0-1,0-2.4,1-3.9c1.2-1.6,3.1-2.4,4.9-2.4c1.2,0,4.6,0.5,5.7,3.7c0.5,1.5,0.6,2.9,0.6,5.8
		c-4.3,0-12,0-17.4,2.4c-8.1,3.8-9.3,10.2-9.3,13.7s1.2,7.1,3.8,9.7c1.8,1.7,4.6,3.5,11,3.5c2.4,0,8.2,0,13.1-7c0,1.3,0,3.3,0.4,6
		v-0.2h11.7C683,279,682.7,275.2,682.7,271.5z M668,273c-1.2,1.4-3.2,2.5-5.5,2.5c-4.3,0-6.3-3.3-6.3-6.3c0-5.2,5.9-7.8,14.2-7.1
		C670.4,266.8,670.3,270.2,668,273z"/>
	<path style="&st0;" d="M832.6,37.9l-0.1,36.2h13V48.3c0-3.4,0.8-5.6,1.6-6.7c1.4-2.1,3.9-3.4,6.7-3.4c3.3,0,5.3,1.8,6.3,3.7
		c0.7,1.4,0.7,3,0.7,4.8V74h13.1V50.2c0-8.1-0.2-10.4-1.2-13.1c-1.1-3.1-4.8-8.3-13.4-8.3c-9.6,0-13.1,5.7-14.3,7.7l-0.3-6.6h-12.4
		C832.6,32.9,832.6,37.7,832.6,37.9L832.6,37.9z"/>
	<rect x="703.2" y="115.6" style="&st0;" width="13.7" height="11.2"/>
	<rect x="703.6" y="134.4" style="&st0;" width="12.9" height="44"/>
	<path style="&st0;" d="M725.1,156.5c0,7,1.8,12.9,5.6,17.3c4,4.5,9.2,5.8,15,5.8c5.5,0,9.4-1.4,12.5-4.1c5.1-4.3,5.5-9.6,5.7-13
		h-12.8c-0.5,7.8-4.5,8.4-5.9,8.4c-1,0-2.3-0.2-3.5-1.5c-2.9-3.2-3.2-11.1-3.2-13.5c0-4.8,0.7-14,6.8-14c5,0,5.5,6.5,5.7,8.1
		l12.5,0.1c-0.1-11.9-9.7-16.4-17.9-16.4C739.8,133.7,725.1,136.5,725.1,156.5z"/>
	<path style="&st0;" d="M736,75.2c5.5,0,9.4-1.4,12.5-4.1c5.1-4.3,5.5-9.6,5.7-13h-12.7c-0.5,7.8-4.5,8.4-5.9,8.4
		c-1,0-2.3-0.2-3.5-1.5c-2.9-3.2-3.2-11.1-3.2-13.5c0-4.8,0.7-14,6.8-14c5,0,5.5,6.5,5.7,8.1h0l12.4,0.1
		c-0.1-11.9-9.7-16.4-17.9-16.4c-5.8,0-20.5,2.8-20.5,22.8c0,7,1.8,12.9,5.6,17.3C725,73.9,730.2,75.2,736,75.2z"/>
	<path style="&st0;" d="M856.4,140.9l-0.3-6.6h-12.4c0.3,3,0.3,7.8,0.3,8h-0.1v36.2h13v-25.8c0-3.4,0.8-5.6,1.6-6.7
		c1.4-2.1,3.9-3.4,6.7-3.4c3.3,0,5.3,1.8,6.3,3.7c0.7,1.4,0.7,3,0.7,4.8v27.3h13.1v-23.8c0-8.1-0.2-10.4-1.2-13.1
		c-1.1-3.1-4.8-8.3-13.4-8.3C861.1,133.2,857.6,138.9,856.4,140.9z"/>
	<path style="&st0;" d="M626.4,341.7c-4.8,0-9,1.4-12.4,3.7c-7.4,5.1-9.1,13.7-9.1,20.8c0,7,1.7,12.9,5.7,17.1
		c4.6,4.8,11.8,5.5,15.5,5.5c6.4,0,12.2-1.7,15.4-5.1c3.6-3.8,4-7.5,4.2-9.6H634c-1.3,4.9-4.5,6.1-7.7,6.1c-9,0-9-8.8-9-11.7l0,0
		v-0.1h29.4c0.2-3.7,0.4-10.1-2.6-16.1C640.1,344.1,632.7,341.7,626.4,341.7z M617.7,360.4c0.3-5.1,2.6-9.8,8.3-9.8
		c7.5,0,7.7,7.8,7.7,9.8H617.7z"/>
	<rect x="640.8" y="11.1" style="&st0;" width="12.9" height="62.9"/>
	<polygon style="&st0;" points="927.3,30.2 927.3,30.2 927.3,30.2 	"/>
	<polygon style="&st0;" points="560.9,230.1 560.9,220 520.3,220 520.3,282.8 533.8,282.8 533.8,256 559,256 559,245.6 533.8,245.6 
		533.8,230.1 	"/>
	<path style="&st0;" d="M579.6,342.7c-8,0-11.2,4.5-12.7,6.6v-24.9h-12.7l-0.1,62.8h13l-0.1-26.9c0-6.9,4.6-9,8.3-9
		c7.2,0,7.2,7.1,7.2,9.6v26.3h12.8v-26.7c0-5.7-1.3-9.7-2.9-11.9C590.3,345.9,586.1,342.7,579.6,342.7z"/>
	<path style="&st0;" d="M625.8,115.7L625.8,115.7l0,62.8h12.4c0.2-2.7,0.3-4.8,0.4-6.2c4,6.8,10.9,7,13.2,7
		c8.8,0,18.4-5.8,18.4-22.2c0-14.8-8.4-23.2-19.1-23.2c-2.2,0-8,0.2-12.4,5.9v-24.1H625.8z M647.7,142.5c9.3,0,9.5,11.5,9.5,15.1
		c0,2.3,0,13.3-8.9,13.3c-5.8,0-10.1-4.8-10.1-14.8C638.2,153.3,638.2,142.5,647.7,142.5z"/>
	<path style="&st0;" d="M634,282.8V259c0-8.1-0.2-10.4-1.2-13.1c-1.1-3.1-4.8-8.3-13.4-8.3c-9.6,0-13.1,5.7-14.3,7.7l-0.3-6.6h-12.4
		c0.3,3,0.3,7.8,0.3,8h0l-0.1,36.2h13v-25.8c0-3.4,0.8-5.6,1.6-6.7c1.4-2.1,3.9-3.4,6.7-3.4c3.3,0,5.3,1.8,6.3,3.7
		c0.7,1.4,0.7,3,0.7,4.8v27.3H634z"/>
	<path style="&st0;" d="M902.4,73.2c3.1,0,7.7-0.6,11.8-6c-0.1,6.7-0.1,8.2-0.6,10.4c-0.9,3.9-4.2,5.7-8,5.7c-6.9,0-7.5-4.8-7.7-6.1
		h-12.4c0.8,13.3,13,14.1,19.3,14.1c8.4,0,21.9-1.5,21.9-17.7V41.1c0-4.5,0.3-7.4,0.6-10.9l-11.9,0.1l-0.4,5.8
		c-1.3-1.9-4.3-6.3-12.3-6.3c-12.6,0-18.8,10.7-18.8,21.8C883.9,62.2,889.8,73.2,902.4,73.2z M905.4,38.4c7.8,0,8.8,8.4,8.8,13.4
		c0,1.9,0,12.5-9,12.5c-8.6,0-8.6-10.6-8.7-12.8C896.5,42.1,900.5,38.4,905.4,38.4z"/>
	<polygon style="&st0;" points="464.8,0 456.8,0 456.8,188.7 447.9,188.7 447.9,214.5 456.8,214.5 456.8,403.2 464.8,403.2 
		464.8,214.5 472.9,214.5 472.9,188.7 464.8,188.7 	"/>
	<path style="&st0;" d="M0,397.6h128.5V273.2v0H0V397.6z M3.7,276.9h121.1h0v117H3.7V276.9z"/>
	<path style="&st0;" d="M274.7,397.5h128.5V273H274.7V397.5z M278.4,276.7h121.1v117.1H278.4V276.7z"/>
	<path style="&st0;" d="M136.9,397.4h128.5V273H136.9V397.4z M140.6,276.7h121.1v117H140.6V276.7z"/>
	<polygon style="&st0;" points="316.4,295.5 316.4,381.6 327.7,381.6 327.7,342.6 360.2,342.6 360.2,333.4 327.7,333.4 327.7,304.8 
		362.9,304.8 362.9,295.5 316.5,295.5 	"/>
	<path style="&st0;" d="M136.9,264.3h128.5V139H136.9V264.3z M140.6,142.7h121.1v0v117.9H140.6V142.7z"/>
	<path style="&st0;" d="M71.7,303.2c7.2,0,13.2,1.6,17.3,3.6l2.8-9.1c-3-1.5-9.9-3.8-20.5-3.8c-26.7,0-45,18.1-45,45.2
		c0,28.4,18.2,43.7,42.5,43.7c10.5,0,18.8-2.1,22.8-4.1l0,0l-2.3-9c-4.5,2.2-11.4,3.6-18.3,3.6c-20.8,0-33-13.4-33-34.6
		C38,316.1,51.5,303.2,71.7,303.2z"/>
	<path style="&st0;" d="M226,305.6c-7.5-6.9-18.9-10.7-34.9-10.7c-8.9,0-16.9,0.8-23.7,1.9v84.6c5.6,0.6,12.1,1,20.2,1
		c16.8,0,30.1-4.3,38.3-12.4c7.9-7.9,12.4-19.4,12.4-33.5C238.3,322.6,233.8,312.6,226,305.6z M189.9,373.4c-4.4,0-8.5-0.1-11.3-0.5
		v-68.1c3-0.6,7.3-1.1,13.1-1.1c23.5,0,35,12.9,34.9,33.2C226.6,360.1,213.8,373.4,189.9,373.4z"/>
	<path style="&st0;" d="M274.7,264.3h128.5V139H274.7V264.3z M278.4,142.7h121.1v117.9H278.4V142.7z"/>
	<path style="&st0;" d="M221.4,212c0,18.9-8.3,27.3-21,27.3c-11.5,0-20.1-8.1-20.1-27.3v-51.1h-11.2v50.7c0,26.8,13.3,36.8,31,36.8
		c18.7,0,32.6-10.8,32.6-37.2v-50.3h-11.3V212z"/>
	<path style="&st0;" d="M274.7,130h128.5V4.8H274.7V130z M278.4,8.5h121.1v117.9H278.4V8.5z"/>
	<path style="&st0;" d="M357.4,197.1c0,13.4,0.3,23.9,1.3,35.4l-0.4,0.1c-4-8.8-9.1-17.9-15.4-28L315.4,161h-12.3v86.1h10.5v-36.8
		c0-14.3-0.2-24.6-0.8-35.5l0.4-0.1c4.2,9.4,10,19.2,16,28.8l27.4,43.7h11.3v-86.1h-10.5V197.1z"/>
	<path style="&st0;" d="M386.6,81.4c-1.5,1.8-2.8,3.9-4.2,5.8c-0.3,0.4-0.5,1-1,1.1c1.5-2.5,2.8-5.4,2.4-9.3
		c-0.3-3.5-1.5-6.6-1.3-10.5c-1.7,3.4-2,8-2.4,12.7c-0.2,2.3-0.4,4.6-0.8,6.7c-0.5,2.1-1.3,3.9-2.1,5.5c3.9-3.1,8.8-5.2,12.2-8.9
		c3.3-3.6,6.2-8.1,5.4-15.2C394.1,75.1,389.6,77.8,386.6,81.4z"/>
	<path style="&st0;" d="M390.9,64c-0.8,1.6-1.4,3.3-1.9,5.2c-0.4,1.4-0.7,2.9-1,4.3c-0.1,0.5,0,1-0.5,1.3c0-1.2,0.6-2.2,0.6-3.6
		c0.1-3.6-1-6-2.5-8.4c-1.5-2.3-3-4.5-3.8-7.3c-0.1,2.8,0.3,5.3,0.8,7.7c0.4,1.9,0.9,3.7,1.4,5.4c0.5,1.8,1.2,3.5,1.6,5.2
		c0.5,2,0.2,4,0.2,6.3c1.3-2.3,3.2-4.4,4.8-6.5c1.4-1.8,2.5-3.6,3.3-6.2c1.3-4.4,1.4-10.5-0.5-14.6C393.9,57.4,392.3,60.8,390.9,64z
		"/>
	<path style="&st0;" d="M373.4,97.8c-0.8,0.7-1.7,1.4-2.7,1.7c2.3-2.2,4.5-4.6,5.4-8.4c1-3.6,1-8,2.5-11.4c0,0,0.1,0,0-0.1
		c-1.2,1.7-2.5,3.3-3.7,5.2c-2.4,3.7-3.1,8.7-5.1,12.7c-0.8,1.7-1.9,3.3-3.2,4.5c-0.1,0.1-0.6,0.6-0.3,0.4c3-0.8,6-1.2,8.8-1.9
		c2.9-0.7,5.3-1.8,7.4-3.3c2.1-1.5,4-3.2,5.5-5.3c1.5-2,2.8-4.4,3.2-7.4C388.1,91.8,379,93.1,373.4,97.8z"/>
	<polygon style="&st0;" points="391.2,84.5 391.2,84.5 391.2,84.5 	"/>
	<path style="&st0;" d="M387,54.5c-2-4.2-6.7-5.8-8.9-9.7c0,0-0.1-0.1-0.1,0c0.9,4.5,2.8,7.5,5,10.5c2.1,2.9,4.3,5.4,5.3,9.3
		c0.1,0.3,0.1,0.6,0.3,0.8c0.4-5.3,3.5-8.6,3.5-14.5c0-4.2-1.3-7.9-3-10.5c-0.5-0.6-0.9-1.4-1.4-1.9c-0.1-0.2-0.4-0.6-0.5-0.4
		c1,1.8,1.7,4.1,1.5,6.8c-0.1,1.2-0.3,2.3-0.4,3.5c-0.3,3.3-0.1,7,0.1,10.1c0,0.3,0.2,0.6-0.1,0.8C387.9,57.4,387.6,55.9,387,54.5z"
		/>
	<path style="&st0;" d="M381.3,33.7c0.7,1.2,1,2.8,1.4,4.3c0.6,2.3,1.1,4.7,1.8,6.7c0.2,0.7,0.7,1.3,0.7,2c-0.5-0.6-0.7-1.3-1.1-1.9
		c-0.3-0.6-0.8-1.1-1.3-1.7c-2.8-3.2-7.6-4.6-9.6-8.7c0.6,4.7,2.9,7.4,5.8,9.7c2.8,2.3,6,4.3,7.8,7.7c-0.6-2.6-0.2-5.9-0.1-8.7
		c0.1-5.5-2.4-9.4-5.9-11.4h0c-0.5-0.3-1.7-1-2.1-1C379.7,31.6,380.6,32.5,381.3,33.7z"/>
	<path style="&st0;" d="M382.5,68.5C382.7,68.5,382.4,68.2,382.5,68.5L382.5,68.5z"/>
	<path style="&st0;" d="M365.3,104c-2.2,0.3-4.4,1-6.4,0.9c1.8-0.6,3.3-1.1,4.7-1.9c3.6-2.3,4.6-6.9,6.8-10.4
		c0.2-0.2,0.4-0.5,0.4-0.8c-3.1,2.3-5.9,4.9-8.6,7.7c-1.4,1.4-2.7,2.8-4.5,3.7c-1.7,0.9-3.6,1.5-6,2.1c5.6,0.5,10.3,3.2,16.8,2.8
		c3.4-0.2,6.3-1.5,8.7-3.2c1.7-1.1,3.4-2.5,4.6-4.3c0.3-0.4,0.9-1.4,0.9-1.7c-2.3,2.6-6,3.9-10.5,4.5
		C370,103.6,367.6,103.7,365.3,104z"/>
	<path style="&st0;" d="M373.4,108.5c-2.3,1.5-5,2.2-8.1,2.2c-3.3,0-6-1.1-8.3-2.1c-1.2-0.5-2.3-1.1-3.6-1.6c-2.5-1-5.4-1.7-8.7-1.7
		c-1.5,0-3.4,0.1-4.7,0.5c-0.3,0.2-0.7,0.6-1.3,0.6c-0.7,0-1.4-0.4-2.1-0.6c-2.4-0.5-5.2-0.5-7.6-0.1c-3,0.5-5.5,1.6-8.2,2.8
		c-2.4,1.1-5,2.5-8.4,2.6c-1.8,0.1-3.4-0.1-5-0.5c-1.4-0.4-2.7-0.9-3.8-1.6c3.3,3.5,8.4,6.7,15.2,5.3c2.9-0.6,5.2-1.9,7.3-3.3
		c2.2-1.4,4-3.3,6.6-4c1.2-0.3,2.7-0.2,3.6,0.3c-5,2.3-9.2,5.3-12.7,9.1c0.9,0.6,1.6,1.3,2.4,1.9c1.6-2.3,3.4-4.1,5.6-5.9
		c1.4-1.2,3.2-2.6,5-3.6c0.6-0.4,1.6-0.8,2.1-0.8c0.5,0.1,1.3,0.7,1.9,1c4.3,2.5,7.5,5.9,10.8,9.2c0.8-0.7,1.6-1.3,2.2-2.1
		c-3.6-3.6-7.8-6.5-12.6-8.9c0.9-0.2,2.2-0.4,3.4-0.2c1.4,0.1,2.8,1.1,3.9,1.9c1.1,0.8,2.3,1.7,3.4,2.3c2.3,1.5,5.3,2.8,8.8,3
		c3.7,0.2,6.2-0.7,8.5-2c1.5-0.8,2.9-1.9,4-3.2C373.2,108.8,373.5,108.8,373.4,108.5L373.4,108.5z"/>
	<path style="&st0;" d="M301.6,79c2.1,4.7,4.8,8.6,8.1,11.9s7.1,6.1,11.8,8.2c4.6,2,10,3.5,16.4,3.5c6.6,0,12-1.3,16.7-3.4
		c9.1-4.1,15.9-11,20.2-19.9c2.2-4.5,3.8-9.9,3.8-16.2c0-6.4-1.2-12-3.3-16.7c-4.2-9.2-10.7-16.1-19.7-20.3c-4.5-2.1-9.7-3.8-16-3.9
		l-0.1-0.1h-1.7c-12.7,0.7-21.5,5.1-28.1,12c-6.5,6.7-11.6,15.6-11.6,28.4C298.1,68.8,299.5,74.4,301.6,79z M310.5,89.1
		c-0.1,0-0.7-0.8-1-1.2c-0.9-1.3-1.8-2.5-2.7-3.7c-3.7-5.2-6.2-12.2-6.6-20.3c1.6-0.1,4.1,0.2,5.6,0c0.1,0,0.3-0.1,0.4-0.2
		c0.1,0,0.1,0,0.1,0.1c0,0.4,0,0.8-0.1,1.1c0.2,0.9,0.3,2.3,0.5,3.5c0.2,1.1,0.4,2.3,0.8,3.1c-0.4,0-0.6-0.8-0.9-1.1
		c-0.5,0.1-0.9,0.2-1.2,0.4c-0.2,0.2,0.1,0.3-0.1,0.5c-0.2,0-0.3,0.1-0.5,0.1c-0.3-0.1-0.3-0.3-0.6-0.4c-0.3,0-0.5,0.1-0.8,0.2
		c-0.2,0.4-0.3,0.8-0.6,1c-0.1,0.7-0.3,1.4-0.1,2.1c0,0.3,0.2,0.4,0.3,0.6c0,0.2,0,0.5,0.1,0.7c0.2,0.5,0.5,0.7,0.7,1
		c0.3,0,0.3-0.2,0.5-0.2c0.3,0.4,1.5,2.1,1.8,0.6c0.3,0.3,0.5,0.9,0.9,1.1c0.8-0.1,0.6,0.8,1.5,0.6c0.3,0.2,0.3,0.7,0.5,1
		c0.3,0.5,1,1.1,1.3,1.1c0.4,0.1,0.5-0.1,0.8-0.3c0.1,1.1,0.9,1.7,1.9,1.9c0.6,0.7,1.1,1.5,1.9,1.9c-0.2,0.1-0.3,0.2-0.5,0.2l0,0
		c-0.7,0.7-1.2,1.5-1.9,2.5c-0.4,0.5-0.9,1-1.5,1.6L310.5,89.1z M337,38.1c-3.4,0-6.6,1.1-9.1,2.2h0c-2.3,1.1-4.4,2.6-6.2,4.1
		c0-0.6-0.6-0.9-0.9-1.2c-0.7-0.6-1.3-1.4-2.1-2c-0.3-0.4-0.8-0.6-1.1-1c1.4-0.8,2.5-2,3.8-2.8c4.1-2.7,9.1-4.8,15.6-5.1
		C336.7,34.1,337,36.2,337,38.1z M327.5,68.2c0.5,0,0.6,0.5,0.9,0.4c0.2-0.3-0.4-0.7,0-1c0.5,0.2,0.3,0.9,0.4,1.3
		c0.1,0.3,0.3,0.5,0.3,0.8h0c-0.1,0.5-1.1,1.1-1.4,1.5c-0.1,0.2-0.2,0.4-0.4,0.5c-0.1-0.5-0.5-0.9-0.8-1.3c-0.9-1.3-1.4-2.8-2.1-4.3
		c0.3,0,0.9,0.2,1.4,0.2c0.1,0.2,0.4,0.3,0.3,0.7c0.5-0.1,0.7-0.2,1,0.1c0.1,0.2-0.1,0.2-0.1,0.4C327.1,67.8,327.3,68,327.5,68.2z
		 M337.5,72.5c-0.1,0.2-0.2,0.2-0.3,0.3c0.1,0.2,0,0.6,0.1,0.8c0.2,0.3,0.4,0.2,0.5,0.5c0,0.7-0.5,0.3-0.9,0.3
		c-0.9,0.3-0.6,1.1-0.8,2.1c-3-0.4-5.2-1.7-7.2-3.2c1.1-1.5,2.7-2.4,3.6-4.1c0.2,0.1,0.2,0.4,0.3,0.5c1.3,0.7,2.8,1.9,4.7,1.5
		C337.4,71.5,337.2,72.2,337.5,72.5z M337.2,92.7c-0.1,0.2-0.5-0.2-0.7-0.3c-0.4-0.1-1.1-0.1-1.6,0c-7.6-0.9-13.2-4.2-17.6-8.2
		c0.7-0.1,1,0.7,1.6,0.8c1.1,0.1,2.1-0.8,3.2-0.9c0.9,0,2,0.2,2.1-0.6c0.1-0.6-0.6-0.8-0.6-1.2c2.5,1.9,6.5,4,10.8,4.6
		c1,0.1,1.9,0.3,2.6,0C337.1,88.8,336.8,91.1,337.2,92.7z M317.2,66.5c-0.3,0.4-0.6,0.7-0.7,1.2c0-1.4-0.3-2.5-0.4-3.8
		c0-0.2-0.1-0.3-0.2-0.4c0.4,0.1,1.2,0.3,1.8,0.1c-0.4,0.2-0.5,0.7-0.7,1.5C316.8,65.9,316.7,66,317.2,66.5z M320,60.9
		c0.3-0.5,1.4-0.6,2-0.3c0.3,0.6,0.6,1.8,0.3,2.6c-0.1,0.3,0.3,0.2,0.2,0.4c0,0.7-0.5,1.2-1.3,1.1c-0.5,0-0.5-0.7-1-0.7
		c-0.3,0.7,0.3,1.5-0.1,2.2c-0.2,0-0.3-0.2-0.6-0.1c-0.3,0.7,0.5,1,1,1.3c0.3-0.1,0.2-0.6,0.3-1c0.1-0.3,0.2-0.7,0.2-1
		c0.2,0.1,0.5,0.1,0.7,0.3c0.7,3.1,2.1,5.7,3.8,7.7c-1.9,1.6-3.5,3.3-5.1,5.2c-0.1-0.1-0.1-0.4-0.4-0.3c0.1-0.6,0.8-0.6,1-1
		c-0.1-0.5,0-1-0.2-1.5c-0.1-0.3-0.4-0.5-0.5-0.7c-0.5-0.8-0.2-1.7-0.4-3c0,0-0.1-0.2-0.1-0.3c-0.1-0.3-0.3-0.4-0.4-0.6
		c-0.2-0.4,0-0.8-0.1-1.3c0-0.3-0.1-0.4-0.2-0.6c0-0.2,0-0.3-0.1-0.5c-0.3-0.7-1-1.1-1.3-1.7c0.4-0.7-0.4-1.3-0.2-1.8
		c0.2-0.5,0.7-0.4,1.3-0.5c0.5-0.2,0.2-1.1,0.5-1.4c0.4-0.1,0.7,0.2,1,0C321,62.6,319.9,61.9,320,60.9z M334,84
		c0.3,0,0.6,0.2,0.9,0.3c-1.2-0.1-2.3-0.5-3.3-0.8c-2.2-0.7-4.1-1.6-5.8-2.8c-0.9-0.6-1.6-1.4-2.5-1.8c1.3-1.4,2.7-2.6,3.9-4.1
		c0.7,0.9,1.7,1.6,3.1,2.4c1.3,0.7,2.2,1.4,4.1,1.4h0c-0.5,0.2-1,0.6-1.3,1c-0.1,0.7-0.4,1.2-0.8,1.6C332.4,82.5,333.4,83.1,334,84z
		 M329.9,68.9c0.2-0.5,0.7-0.8,0.8-1.4c0.2,0.1,0.5,0.2,0.7,0.3C330.7,68,330.4,68.6,329.9,68.9z M332.2,63.6
		c-1,0.4-2.2,0.5-3.4,0.6c0.1-0.4,0.5-0.4,0.7-0.6c-0.1-1.1,0.8-2.1,1.6-1.3c0.3,0.1,0.2-0.2,0.4-0.3c0.4,0.4,0.6,2.3,1.4,1.2
		c0.2,0.3,0,0.9-0.3,0.9C332.3,64,332.4,63.6,332.2,63.6z M324.5,53.1c-0.2,0.1-0.4,0.1-0.5,0c-0.3,0.1-0.6,0.5-0.8,0.7
		c-0.2,0.2-0.3,0.6-0.6,0.8c-0.4,0.2-1.1,0.1-1.4,0.6c0,0.3,0.2,0.4,0.1,0.7c-0.4,0.4-0.9,0.1-1.4,0.3c-0.3,0.2-0.3,0.4-0.5,0.9
		c-0.2,0.4-0.6,0.7-0.7,0.9c0,0.1,0,0.4-0.1,0.7c-0.1,0.2-0.3,0.2-0.4,0.6c-0.1,0.7,0.3,1.5,0.3,1.9c-0.8,0-1.8-0.1-2.4,0.2
		c0.3-1.5,0.5-3.4,0.9-4.9c1-3.6,2.7-6.6,4.9-9.2c1.5,1.3,2.7,2.9,4.4,4.1C325.4,51.6,325.2,52.7,324.5,53.1z M320.4,45.8
		L320.4,45.8c-2.4,2.7-4.5,6.1-5.6,10.4c-0.3,1.3-0.8,2.9-0.8,4.4c0,0.3,0,0.6,0.1,0.8c-1.6,0-4,0-5.9,0.1c0.5-6.4,2.2-11.4,5-15.6
		c0.4-0.6,0.9-1.3,1.5-2c0.6-0.7,1.3-1.5,1.5-2.2C317.5,43.1,318.8,44.6,320.4,45.8z M313.8,63.6c0.1-0.1,0.2-0.1,0.3-0.2
		c0,0.6-0.2,1.9,0.2,2.4c0,0.3-0.2,0-0.3-0.1c-0.2-0.1-0.3-0.2-0.4-0.1c-0.8-0.1-1.1,1.4-2.1,1.4c-1,0.7-1.1,2.6-1.2,3.8
		c-0.4,0.1-0.4,0.6-0.6,1c-0.5-2.5-1.1-4.9-1.3-7.7c0.1-0.4-0.2-0.3-0.2-0.6C309.9,63.8,311.9,63.6,313.8,63.6z M332.3,100.1
		c-8.5-1.4-14.8-5.1-20.3-9.8c1.3-1.6,2.9-2.8,4.2-4.4c4.2,3.9,9.7,7.2,17,8.3c1.3,0.3,2.7,0.6,4,0.3c-0.3,0.6-0.2,1.8-0.2,3.1
		s-0.1,2.4,0.3,3.2C335.9,100.4,333.9,100.3,332.3,100.1z M338.2,77.7c-0.6,0-1.1,0-1.3-0.4c0.2-0.4,0.8-0.4,1-0.7
		c0.2,0,0.3-0.1,0.5-0.1c0.4-0.3,0.4-0.9,0.9-1v-0.4c0.5,0,0.7-0.4,1.1-0.5c0.3,0,0.3,0.2,0.5,0.3c0.2,0.1,0.6,0.1,0.8,0.3
		c0.3,0.2,0.4,0.4,0.6,0.5c0.3,0,0-0.4,0.2-0.5c0.6,0,1.3,0.8,1.7,0.1c0.1-0.5-0.3-0.4-0.3-0.7c0.6,0,0.5,0.5,1,0.5
		c0.6,0,0.8-1,1.7-0.9c0.4,1.1-0.6,1.9-1.3,2.4c-0.6,0.4-1.4,0.4-1.7,1c-0.1,0.2-0.2,0.4-0.2,0.6c-0.8,0.4-1.3-0.4-2.2-0.2
		c-0.2-0.2-0.1-0.6-0.3-0.8C340,77.3,338.6,76.9,338.2,77.7z M342.9,51.1c-0.3,0-0.4,0.3-0.6,0.5c-0.4,0.4-1.2,0.6-1.4,1
		c-0.6-0.1-1-0.3-1.5-0.4c-0.2-1.3,0.1-3.1-0.3-4.1c3.2,0.2,5.8,1.5,8.1,2.9c-0.3,0.5-0.9,0.6-1.1,1.2c0.2,0.2,0.6,0.4,0.9,0.3
		c-0.4,1.5-2.6,1.2-2.9,2.9c-1.1,0.7-1.4-0.5-2.3-0.7c-0.3,0-0.6,0.5-1,0.3c-0.3,0,0.1-0.3,0.1-0.3c0.6-0.5,1.9-0.8,2.3-1.6
		C343.4,52.7,343.8,51.1,342.9,51.1z M353.3,39.7c0.4,0.5,0.4,1.3,0.8,1.9c0.9-0.3,1.6-1.1,2.3-0.2c0.3,0.4,0.5,1,0.6,1.6
		c0,0.3-0.1,0.6,0,0.8c0.1,0.8,0.7,1.1,1.1,1.4c0.4,0.1,0.5-0.1,0.8,0c0.3,0.3,0.4,0.9,0.6,1.2c1.1,0.2,1.4,1.3,2.7,1.3
		c0.9,0.9,1.7,1.8,2.4,2.8c0.6,0.1,0.8-0.2,1.2-0.3c1.1,2.2,1.9,4.6,2.3,7.4c0.2,1.1,0.2,2.5,0.5,3.5c-2,0-4,0.1-5.7,0.5
		c0-1.4-0.1-2.6-0.6-3.4c0.3-0.4,0.3-1.3,0.3-2.1c-1,0-1.2,1.4-1.6,2.3c-0.3,0.7-0.6,2.3-0.1,3h-2c-0.3,0,0.1-0.1,0-0.4
		c-0.1-0.3-0.4-0.8-0.1-1c0.2-0.3,0.6-0.2,1-0.3c0.4-0.8,1.2-1.2,1.2-2.3c0.3-0.4,0.7-0.8,0.6-1.6c0-0.2-0.2-0.4-0.2-0.6
		c-0.1-1,0.6-1.8,0.2-2.6c-0.1-0.1-0.3-0.2-0.3-0.3c-0.1-0.2,0.1-0.4-0.1-0.6c-0.3-0.2-0.9,0-1-0.4c-0.1-0.4,0.5-0.5,0.5-1.1
		c-0.2-0.3-0.6,0-0.9,0c-0.1-0.7,0.5-0.6,0.3-1.1c-0.3-0.9-1.1,0.1-1.5,0.1c-0.4-0.1-0.7-0.5-0.5-1c-0.3-0.5-0.8-1-1.1-1.5
		c-0.2,0-0.4,0-0.5-0.2c0.1-1.1-1-1.5-1.3-2.4c-0.1-0.3-0.3-0.7-0.4-1c-0.1-0.2,0-0.4-0.1-0.6c-0.2-0.6-0.8-1.1-1.5-0.9l-0.9-1.2
		c-0.2-0.4-0.6-0.8-1.1-0.9c-0.4,0.6,0.5,0.9,0.6,1.5c0.1,0.2-0.2,0.1-0.2,0.3c0.1,0.6,0.6,0.9,0.8,1.3c-3.1-2.2-7.1-4-11.8-4.4
		c-0.5-0.1-0.9-0.1-1.3,0c0-1.5,0.3-3.8,0.1-5.4c0-0.2,0-0.3-0.2-0.5c0.3,0,0.7,0.2,1,0.2h1.1c2.8,0.1,6.5,1.3,8.8,2.3
		c0.4,0.2,0.9,0.3,1.1,0.5c0.3,0.1,1.4,1.3,1.5,1.7c0,0.2-0.1,0.4-0.1,0.6C352.7,38.3,354.2,38.7,353.3,39.7z M360,80.8
		c-0.3-0.3-0.7-1.7-1.5-1.4c-0.3,0.1-0.3,0.3-0.3,0.8c-0.1,0.1-0.3-0.1-0.5-0.2c-0.4-0.4-0.9-1-1.4-1.3c0.9-0.5,1.3-1.4,1.9-2.2
		c0.6-0.7,1.1-1.5,1.6-2.3c0.9-1.7,1.6-3.7,2.2-5.7c0.5,0.2,1.1,0.2,1.2-0.4c0.1-0.7-0.6-0.7-0.7-1.3c-0.2-0.6,0.2-1.5,0.2-2.3
		c0.1-0.5,0-0.8,0-1.3c1.9,0.3,4.1,0.2,6,0.1c-0.4,0.9-0.4,2.6-0.6,3.7h0c-0.5,2.9-1.2,5.4-2.4,7.8c-1.4,3-3.1,5.6-5.4,7.9
		C360.6,82,359.9,81.6,360,80.8z M355,86c-0.1-0.9,1.2-1.5,1.3-2.1c0.1-1.1-1.5-1.5-2.2-1.9c-0.4-1.1,0.6-1.3,0.8-2.1
		c0.7,1.1,1.8,1.9,2.6,2.9c0,0.7,0.3,1.2,0.7,1.4c0.2,0.1,0.3-0.1,0.5,0c0.2,0-0.1,0.3-0.2,0.4c-0.8,0.9-2.1,1.8-3.1,2.5
		c-0.1,0.2-0.3,0.3-0.3,0.5c-0.3-0.4,0.3-0.5,0.3-0.8C355.3,86.4,355,86.3,355,86z M348.2,70.9L348.2,70.9c-0.5,0.4-0.8-0.3-0.9-0.7
		c-0.2,0-0.3-0.1-0.5-0.1c-0.2-0.2-0.2-0.6-0.3-0.9c0.2-0.2,0.4-0.5,0.7-0.3c0,0.1-0.1,0.1-0.1,0.3
		C347.6,69.6,348.3,69.9,348.2,70.9z M347.7,76.3c1,0.1,1.8,0.4,2.7,0.6c0.8,0.3,1.5,0.6,2.4,0.2c0.1-0.1,0.1-0.3,0.1-0.5
		c0.8-0.6,0.7-2.2,1.2-3c0-1-0.1-1.7-0.6-2.1c-1.1-0.1-1.4,0.6-1.7,1.3c-0.4,0.1-1.4,0.7-1.6,0c0.8-0.2,1.7-0.2,1.8-1
		c0.4-0.4,0.9-0.2,1.3-0.5c0.3-0.3,0.3-0.5,0.6-1c0.2-0.4,0.6-0.5,0.6-1.1c0.2,0.3,0.1,0.6,0.5,0.7c0.5,0.1,0.7-0.5,0.9-0.9
		c1,0.6,2.4,0,3.5-0.1c-0.3,1.6-0.9,3.2-1.7,4.5c-0.7,1.4-1.7,2.5-2.9,3.7c-0.1-0.6-0.1-1.2-0.5-1.5c-0.3,0-0.3,0.4-0.5,0.6
		c-0.2,0.4-0.6,0.8-0.5,1.4c-0.3,0.5-0.8,0.2-1.7,0.3c-0.5,0-0.9,0.2-1.2,0.2c-0.6,0-1.1-0.7-1.8-0.9c-0.8-0.3-1.6-0.2-2.1-0.7
		C346.7,76,347.3,76.2,347.7,76.3z M356.6,52.3c0,0.3,0.6,0.4,1,0.6c0.4,0.3,0.8,0.9,1.3,1c0.5,0.9,0.8,1.9,1.1,2.9
		c-0.5,0.7-0.6,2.1-1.8,1.7c-0.3-0.7,0.5-1.1,0.3-1.7c0.3-0.1,0.5-0.2,0.6-0.5c-0.2-0.6-1-0.6-1.1-1.3c-0.4-0.1-0.7-0.3-1-0.3
		c-0.6,0.1-0.7,0.7-1.3,0.7c-0.5-0.6,0.6-1.3-0.4-1.6c-0.2-0.6-0.5-1-0.9-1.4c-0.8,0.1-1.5-0.2-2.2-0.2c-0.3,0-0.6,0.1-0.8,0.1
		c-0.6-0.1-1.2-0.6-1.7-0.1c-0.2,0.5-0.4,1-0.5,1.5c-0.3-0.1-0.4-0.3-0.6-0.5c1.3-1.5,2.9-3,4.3-4.5c0.6-0.5,1.1-1,1.5-1.6
		c0.5,0.4,0.9,1,1.5,1.8c0.5,0.6,1.3,1.3,1.3,1.8C357.2,51.3,356.5,51.7,356.6,52.3z M360.7,63.4c-0.4,1.3-0.3,2.8-0.7,4
		c-0.4-0.5-0.4-1-0.8-1.5c-0.3-0.3-1-0.5-1.1-0.9c-0.2-0.7-0.3-1.4-1-1.8C358,63.4,359.5,63.6,360.7,63.4z M351.8,44.8
		c0.5,0.4,0.9,0.8,1.5,1c-0.2,0.4-0.6,0.4-0.9,0.6c-0.6,0.4-1.1,1.2-1.7,1.9c-0.3,0.3-0.6,0.5-0.9,0.8s-0.4,0.7-0.8,0.9
		c-0.2-0.6-0.7-0.9-1.3-1.2c-2-1.5-4.7-2.5-7.7-2.9c-0.2,0-0.5,0-0.6,0.1c-0.2-1.8,0.1-4.2-0.2-5.9
		C344.5,40.6,348.4,42.3,351.8,44.8z M345.9,72.1c-0.1,0.8-1.2,0.8-1.7,1.2C344.1,72.5,344.9,72,345.9,72.1z M339.9,87.8
		c0.7,0.2,2-0.3,2.2,0.4c0,0.4-0.4,0.6-0.4,1c-0.1,0.6,0.4,1.7,0.9,2c0.2,0.1,0.5,0.1,0.7,0.2c0.3,0.2,0.5,0.5,0.8,0.5
		c-1.5,0.4-3.5,0.2-4.7,0.8c0.1-0.9,0-2.1,0-3.3c-0.1-0.9,0.1-1.6-0.3-2.1C339.5,87.3,339.5,87.7,339.9,87.8z M364.9,89.8
		c-5.4,5-11.8,8.9-20.8,10.3c-1.5,0.2-3.6,0.3-4.9,0.6c0.1-1.9,0.1-4.2,0-6.2c1.7,0.3,3.5-0.1,5.1-0.4c0.4-0.1,0.9-0.2,1.2-0.2
		c1.4,0.1,2.3,2.4,4,1.4c0.2-0.1,0.3-0.3,0.6-0.5c0.6-0.5,1.4-0.5,1.6-1.3c0.9-0.4,1.4-1.3,2-2.2c0.2-0.4,0.6-1,1.1-1.4
		c0.5-0.3,1.1-0.6,1.6-0.9c0.5-0.3,0.9-0.7,1.4-1.1c1-0.8,2.2-1.4,2.7-2.5c0.1,0.1,0,0.3,0.1,0.4C362,87.2,363.4,88.5,364.9,89.8
		L364.9,89.8z M376.4,66c-0.7,7.1-3.1,12.8-6.2,17.6c-1.1,1.7-2.5,3.2-3.7,4.9c-1.5-1.4-2.8-3.1-4.5-4.3c3.5-3.6,6.4-8.4,7.8-14.4
		c0.2-0.8,0.3-1.8,0.5-2.9c0.2-1.3,0.4-2.6,0.1-3.6c0.1,0,0.3,0,0.3,0.2c2-0.1,4.3,0.1,6.1-0.2C376.4,63.8,376.5,65.1,376.4,66
		L376.4,66z M376.3,58.2c0.1,0.9,0,2.1,0.4,2.8c-1.6,0.4-3.8,0.1-5.5,0.4c-0.3,0-0.5,0.1-0.7,0.2c0-4.5-1.2-8.5-2.7-12l-0.3-0.6
		c-0.1-0.6-0.1-1-0.3-1.5c-0.4-0.8-1.1-1.5-1.6-2.2c-0.2-0.3-0.3-0.6-0.5-0.8c-0.2-0.3-0.5-0.5-0.8-0.8c-0.8-0.8-1.2-2.1-2.4-2.6
		c-0.1-0.4-0.6-0.8-0.7-1c0.3,0,0.4-0.2,0.6-0.1c1.3-1.3,2.8-2.7,4-4.3C370.9,41.7,375.3,48.2,376.3,58.2z M339.1,23.9
		c2.9,0.3,6,0.6,8.6,1.3c2.3,0.7,4.4,1.4,6.4,2.3c4,1.8,7.3,4,10.2,7c-0.9,0.4-1.6,1.2-2.3,1.9c-0.5,0.6-1,1.2-1.3,1.8l-1-1
		c0-0.6-0.4-1.2-0.7-1.6c-0.5-0.4-1.1-0.9-1.7-1.1c-0.3-0.2-0.5-0.7-1-0.9c-0.2-0.1-0.4,0-0.6,0c-0.3-0.1-0.6-0.3-0.9-0.3
		c-0.6-0.1-1.3,0.2-1.7,0.6c-2.5-1.4-5.5-2.6-9-3.3c-1.3-0.2-2.8-0.7-4.2-0.4c0.1-0.5,0.1-1.2-0.3-1.3c-0.3-0.2-0.4,0.5-0.5,0.2
		C339.2,27.4,339.3,25.4,339.1,23.9L339.1,23.9z M338.5,55.9c-0.4,0-1.2-0.3-1.3,0.2c-0.1,0.5,1.2,1.5,1.5,1.7
		c0.2,0,0.3-0.1,0.4-0.2l0.9,0.3c0.3,0.5,0.8,0.8,1,1.3c0.1,0.1,0.4,0.1,0.6,0.1c-0.2,0.6,0,1,0.2,1.4c-0.3,0.2-0.4,0.7-0.6,1.1
		c0.1,0.3,0.4,0.3,0.6,0.5c0.3,0.3,0.2,0.8,0.5,1c-0.3,0.7,0.1,1.3,0.5,1.6c-0.1,0.8-0.4,1.4-0.7,1.9c-0.6,0.2-1.2-0.2-1.5,0.4
		c-0.9,0.3-0.6,1.7-1.2,2.3c-1.9,0.3-3.6-0.3-4.7-1.1c0.6-0.5,1.6-0.1,2.2-0.6c0.3-0.3,0.2-0.6,0.5-0.9c0-0.2-0.1-0.2-0.1-0.4
		c0.4-0.3,0.5-0.9,0.7-1.3c-0.2-0.3-0.1-0.5-0.1-0.9c-0.3-0.7-3.1-0.7-3.3,0c-0.1,0.4,0.2,0.7-0.1,1.1c-0.9,0-0.8,1.1-1.5,1.3
		c-0.2-0.3-0.5-0.5-0.5-1c0.3-0.1,0.1,0.4,0.4,0.3c0.7,0.1,0.5-0.8,0.7-1.2c0.2-0.4,0.7-0.6,0.7-1c0.1-0.3-0.1-0.3-0.3-0.4
		c0-0.2,0-0.5-0.1-0.6c-0.4,0-0.6,0.1-0.9,0.3c0.1-0.9,0.3-1.7,0.3-2.5c0.3-0.3,0.4-0.8,1-0.9c0.2-0.2,0.2-0.6,0.4-0.8
		c1.1-0.3,2-0.7,2.6-1.5c-0.3-0.4-0.2-1.2-0.5-1.7C337.3,55.5,338.2,55.5,338.5,55.9z M335.5,52.7c-0.2-0.2,0.1-0.5,0-0.8
		c-1,0-0.8,1.7-1.5,2.3c-0.3,0.1-0.7,0.1-0.9,0.3c-0.1-0.2-0.3-0.2-0.5-0.3c-0.3,0-0.5,0.2-0.7,0.2c-0.2-0.2-0.4-0.5-0.6-0.7
		c-0.3,0-0.4,0.4-0.5,0.6c-0.3,0-0.4-0.2-0.6-0.3c-0.1-0.3,0.3-0.2,0.3-0.5c-0.2-0.7-1.2-0.6-1.6-1.1h-0.5c2-2.2,4.8-3.6,8.6-4.1
		c0,1.5-0.1,3.1,0.2,4.3C336.8,52.1,336.2,52.7,335.5,52.7z M331.7,47.2c-1.3,0.6-2.5,1.3-3.5,2.1c-0.2,0.2-0.5,0.3-0.6,0.6
		c-1.5-1.3-2.6-2.9-4.3-4c3.2-2.5,6.5-4.5,11.3-5.4c0.7-0.2,1.9-0.2,2.4-0.5c0,1.7-0.1,4.2,0.1,6C335.1,45.8,333.2,46.6,331.7,47.2z
		 M336.8,24.2c0.3-0.1,0,0.3,0,0.4c0.1,1.8-0.2,4,0.2,5.6c-8,0.4-13.9,3.3-18.7,7.1c-0.7,0.5-1.5,1-1.9,1.8
		c-0.7-0.8-1.5-1.6-2.2-2.3c-0.7-0.7-1.4-1.6-2.4-2C318.1,29.2,325.6,24.9,336.8,24.2z M310.7,36c0.2,0,0.1,0.2,0.2,0.4
		c1.3,1.4,2.6,2.8,4,4h0c-1.4,1.2-2.7,3-3.8,4.8c-1.7,2.8-3.1,5.7-4,9.4c-0.5,2.2-1,4.6-0.8,6.9c-2-0.1-4.2-0.1-6.2,0
		c0.6-10,3.9-16.9,8.4-22.9C309.2,37.7,309.9,36.9,310.7,36z"/>
	<path style="&st0;" d="M370.6,28.8c0.8,1.1,1.5,2.2,2.3,3.3c2.5,3.2,5.4,5.8,8.5,8.1c-0.5-1.1-0.8-2.5-1.2-3.7h0
		c-0.9-2.6-2-4.6-3.9-6.4c-2.2-2.3-5.4-3.3-8.9-4.6c0,0-0.1-0.1-0.1,0C368.3,26.7,369.7,27.5,370.6,28.8z"/>
	<path style="&st0;" d="M319.6,106.7c1.8-0.5,3.8-0.9,5.7-1.2c-4.8-0.8-7.9-2.9-11-5.5c-2-2-4.2-4-6.4-5.8c-0.7-0.7-1.4-1.3-2.3-1.7
		c0.9,1.2,1.7,2.7,2.4,4.1c1.7,3.5,3.6,6.7,7.5,8c0.8,0.2,1.7,0.1,2.4,0.7c-2,0-4.1-0.7-6.4-1c-2.3-0.2-4.7-0.2-7-0.5
		c-2.2-0.2-4.3-0.7-6.1-1.4s-3.2-1.8-4.4-3c1.5,2.5,3.3,4.4,5.6,6c2.3,1.5,5.2,2.8,8.6,3C312.5,108.6,316.4,107.5,319.6,106.7z"/>
	<path style="&st0;" d="M344.4,29.1c0.9,0.5,2.1-0.1,2.5-0.7c-0.5-0.9-1.7-1.1-3-1.2c-0.9,0.2-2,0.8-2.9,1.2c-0.3-0.1-0.8-0.2-1,0.1
		C340.5,30.1,343.1,29.5,344.4,29.1z"/>
	<path style="&st0;" d="M294.8,40.8c2.4-2.2,5.2-4.1,7.2-6.9c1-1.4,1.9-2.8,3-4.2c0.9-1.2,1.9-2.3,2.9-3.3c0.1-0.1,0.5-0.3,0.3-0.4
		c-5.3,1.9-9.9,4.4-11.8,9.6C295.8,37.2,295.5,39.1,294.8,40.8z"/>
	<path style="&st0;" d="M356.7,33.2c0.5,0.5,0.7,1.2,1.6,0.9c0-0.8-0.1-1.6-0.8-1.9c-0.5,0.2-0.9-0.2-1.3,0
		c-0.2,0.1-0.1,0.3-0.1,0.5C356.3,33,356.5,33,356.7,33.2z"/>
	<polygon style="&st0;" points="302.9,34.9 302.9,34.9 302.9,34.9 	"/>
	<path style="&st0;" d="M289.9,49c0,1.2-0.2,2.3-0.1,3.5c0.8-1.7,2.1-3,3.4-4.3c1.3-1.3,2.8-2.3,4.2-3.5c1.4-1.2,2.6-2.5,3.6-4.1
		c1-1.5,2-3.4,1.9-5.7c-1,2.9-3.7,4.4-6.1,6.1c-2.1,1.6-3.8,3.3-5,5.6c-0.1,0.3-0.3,0.7-0.5,1c0.1-1.4,0.9-2.6,1.3-4.1
		c0.9-3,1.1-6.4,2.3-8.9c0.6-1.2,1.5-2.2,2.4-3.1c-1.9,0.6-3.4,1.6-4.5,2.9c-1.2,1.4-2.2,2.7-2.7,4.6c-0.6,2-0.6,4.3-0.5,6.7
		C289.7,46.7,289.9,47.9,289.9,49z"/>
	<path style="&st0;" d="M301.6,101c2.8,0.7,5.9,0.9,8.9,1.8c-1.4-1.2-2.7-2.9-3.7-4.8l0,0c-1.9-4-2.9-8.9-5.2-12.6
		c-0.6-0.9-1.3-1.7-1.9-2.6c-0.6-0.9-1.1-1.7-1.9-2.4c1.6,3.2,1.6,7.7,2.6,11.3c0.9,3.3,2.6,5.6,4.7,7.5c0.3,0.2,0.8,0.5,0.8,0.8
		c-1.9-0.9-3.4-2.5-5.2-3.6c-5.5-3.4-12.6-4.9-15.3-11.1c1.4,5.7,4.7,9.6,8.8,12.5C296.4,99.3,298.7,100.4,301.6,101z"/>
	<path style="&st0;" d="M299.5,93.9c-0.7-1.6-1.6-3.3-2-5.5c-1.2-6.2-0.8-14.3-3.4-19.3c0.5,4.2-1.4,7.6-1.3,11.7
		c0,1.6,0.3,3.2,0.7,4.5c0.4,1.3,1.2,2.3,1.7,3.5c-1.4-1.3-2.3-3-3.4-4.5s-2.4-2.9-3.8-4.3c-2.6-2.6-5.5-5.3-6.2-9.8
		c-0.1,0.4,0.1,0.9-0.1,1.2v1.8C282.6,85.1,292,88.6,299.5,93.9z"/>
	<path style="&st0;" d="M288.2,66.1c1.5-7.4,7.2-10.7,9.2-17.5c0.3-0.9,0.6-2,0.6-3.1h0c-1.4,2.6-3.9,4.1-5.9,6.2
		c-1.7,1.9-3.1,4-3.6,7c-0.1,0.5,0,1-0.3,1.2c-0.2-0.6-0.1-1.3,0-1.9c0.2-2,0.4-3.9,0.2-6c-0.2-2.6-0.8-5.2-0.8-7.7
		c0.1-2.2,0.7-4.3,1.5-5.7c-2.8,3.4-5.1,7.6-4.8,13.6C284.6,57.6,287.7,61,288.2,66.1z"/>
	<path style="&st0;" d="M290.5,79.8c0.2,0.3,0.3,0.8,0.7,1c-0.3-1.5-0.4-2.9-0.3-4.3c0.1-1.6,0.7-3.1,1.1-4.6
		c0.9-3.1,1.8-5.8,2.3-9.3c0.4-2.1,0.8-4.3,0.5-6.6h0c-0.5,2.9-2.3,5-3.7,7.2c-1.6,3-3.2,7.2-2,11.6c0,0,0.4,0.8,0.1,0.8l-0.3-0.5
		c-0.5-1.3-0.6-2.8-1-4.5c-0.8-3.6-2.3-6.1-3.5-9.2c-0.8-2-1.5-4-1.3-6.8c0.1-0.3,0.2-0.7,0.1-1c-0.7,2-1.2,4.2-1.4,6.8v1.1
		c0.3,4.5,1.3,8.5,3.2,11.3C286.6,75.3,288.9,77.2,290.5,79.8z"/>
</g>
</svg>
