<svg xmlns="http://www.w3.org/2000/svg" xmlns:xlink="http://www.w3.org/1999/xlink" id="&#xB808;&#xC774;&#xC5B4;_1" data-name="&#xB808;&#xC774;&#xC5B4; 1" viewBox="0 0 1311.75 93.05"><defs><style>.cls-1{fill:#fff;}.cls-2{clip-path:url(#clip-path);}</style><clipPath id="clip-path" transform="translate(-561.85 -515.65)"><path class="cls-1" d="M851,561.49a91.69,91.69,0,0,0,9.87,41l.32.65h-6.23l-.12-.26a96.13,96.13,0,0,1,0-82.73l.13-.25h6.23l-.33.65a91.79,91.79,0,0,0-9.88,41m13.29,0a77.44,77.44,0,0,1,11.84-41l.43-.68H870l-.13.22a82.66,82.66,0,0,0,0,82.8l.13.22h6.52l-.42-.68a77.47,77.47,0,0,1-11.83-40.93m13.31,0a63.86,63.86,0,0,1,15-40.89l.62-.74h-1L886,520a69.68,69.68,0,0,0-13.89,41.45,68.61,68.61,0,0,0,14.24,41.61h6.83l-.61-.73a63.86,63.86,0,0,1-15-40.88m29.56,36.84a49.61,49.61,0,0,1,5-77.66l1.16-.81h-8.86l-.5.27-.54.46a55.35,55.35,0,0,0,0,81.8l.85.71h9l-1.16-.81a48.28,48.28,0,0,1-5-4m33.13-78.45a41.61,41.61,0,0,0,0,83.22h79.84v-5.5H940.26a36.12,36.12,0,0,1,0-72.23h79.84v-5.49Zm-15,41.61a15,15,0,0,0,15,15h79.84V571H940.26a9.53,9.53,0,0,1,0-19.06h79.84v-5.5H940.26a15,15,0,0,0-15,15m-13.29,0a28.35,28.35,0,0,0,28.32,28.32h79.84v-5.5H940.26a22.82,22.82,0,1,1,0-45.64h79.84v-5.5H940.26a28.35,28.35,0,0,0-28.32,28.32"></path></clipPath></defs><rect class="cls-1" y="4.25" width="18.08" height="83.17"></rect><polygon class="cls-1" points="99.75 4.25 78.92 53.64 59.35 4.25 32.91 4.25 32.91 87.42 50.99 87.42 50.99 31.3 73.06 87.42 84.78 87.42 106.98 31.3 106.98 87.42 125.06 87.42 125.06 4.25 99.75 4.25"></polygon><path class="cls-1" d="M737.79,538H720.46v18.71h17.33c5.74,0,10-3.62,10-9.23s-4.24-9.48-10-9.48m-35.41-18.08h33.8c19.82,0,30.05,12.6,30.05,27.69s-10.23,27.3-28.93,27.3H720.46v28.19H702.38Z" transform="translate(-561.85 -515.65)"></path><path class="cls-1" d="M801.86,537.46l11.72,34.93H790.26Zm-11.23-17.57-29,83.18h18.83l4.24-12.6h34.54l4.24,12.6h18.83l-29.18-83.18Z" transform="translate(-561.85 -515.65)"></path><polygon class="cls-1" points="754.3 4.25 754.3 87.42 811.25 87.42 811.25 68.71 772.38 68.71 772.38 4.25 754.3 4.25"></polygon><polygon class="cls-1" points="824.23 4.25 824.23 87.42 881.18 87.42 881.18 68.71 842.31 68.71 842.31 4.25 824.23 4.25"></polygon><polygon class="cls-1" points="893.82 4.25 893.82 87.42 951.43 87.42 951.43 69.34 911.9 69.34 911.9 54.37 950.56 54.37 950.56 36.17 911.9 36.17 911.9 22.32 951.43 22.32 951.43 4.25 893.82 4.25"></polygon><polygon class="cls-1" points="1049.32 4.25 1049.32 22.95 1073.76 22.95 1073.76 87.42 1091.85 87.42 1091.85 22.95 1116.16 22.95 1116.16 4.25 1049.32 4.25"></polygon><polygon class="cls-1" points="469.2 4.25 469.2 22.95 493.64 22.95 493.64 87.42 511.73 87.42 511.73 22.95 536.04 22.95 536.04 4.25 469.2 4.25"></polygon><rect class="cls-1" x="1131.25" y="4.25" width="18.08" height="83.17"></rect><polygon class="cls-1" points="1224.55 4.25 1202.58 66.04 1180.75 4.25 1161.88 4.25 1191.36 87.42 1213.81 87.42 1243.42 4.25 1224.55 4.25"></polygon><polygon class="cls-1" points="1254.14 4.25 1254.14 87.42 1311.76 87.42 1311.76 69.34 1272.22 69.34 1272.22 54.37 1310.88 54.37 1310.88 36.17 1272.22 36.17 1272.22 22.32 1311.76 22.32 1311.76 4.25 1254.14 4.25"></polygon><path class="cls-1" d="M1261.57,536.81a24.67,24.67,0,1,0,24.68,24.67,24.7,24.7,0,0,0-24.68-24.67m0,67.29a42.62,42.62,0,1,1,42.62-42.62,42.67,42.67,0,0,1-42.62,42.62" transform="translate(-561.85 -515.65)"></path><path class="cls-1" d="M1200.67,576.61a24.67,24.67,0,1,1,0-30.26l14.93-9.94a42.62,42.62,0,1,0,0,50.14Z" transform="translate(-561.85 -515.65)"></path><path class="cls-1" d="M1587.05,576.61a24.67,24.67,0,1,1,0-30.26l14.94-9.94a42.62,42.62,0,1,0,0,50.14Z" transform="translate(-561.85 -515.65)"></path><path class="cls-1" d="M851,561.49a91.69,91.69,0,0,0,9.87,41l.32.65h-6.23l-.12-.26a96.13,96.13,0,0,1,0-82.73l.13-.25h6.23l-.33.65a91.79,91.79,0,0,0-9.88,41m13.29,0a77.44,77.44,0,0,1,11.84-41l.43-.68H870l-.13.22a82.66,82.66,0,0,0,0,82.8l.13.22h6.52l-.42-.68a77.47,77.47,0,0,1-11.83-40.93m13.31,0a63.86,63.86,0,0,1,15-40.89l.62-.74h-1L886,520a69.68,69.68,0,0,0-13.89,41.45,68.61,68.61,0,0,0,14.24,41.61h6.83l-.61-.73a63.86,63.86,0,0,1-15-40.88m29.56,36.84a49.61,49.61,0,0,1,5-77.66l1.16-.81h-8.86l-.5.27-.54.46a55.35,55.35,0,0,0,0,81.8l.85.71h9l-1.16-.81a48.28,48.28,0,0,1-5-4m33.13-78.45a41.61,41.61,0,0,0,0,83.22h79.84v-5.5H940.26a36.12,36.12,0,0,1,0-72.23h79.84v-5.49Zm-15,41.61a15,15,0,0,0,15,15h79.84V571H940.26a9.53,9.53,0,0,1,0-19.06h79.84v-5.5H940.26a15,15,0,0,0-15,15m-13.29,0a28.35,28.35,0,0,0,28.32,28.32h79.84v-5.5H940.26a22.82,22.82,0,1,1,0-45.64h79.84v-5.5H940.26a28.35,28.35,0,0,0-28.32,28.32" transform="translate(-561.85 -515.65)"></path><g class="cls-2"><path class="cls-1" d="M926.93,515.65h93.17V608.7H926.93s-32.37-18.9-32.07-47.21S926.93,515.65,926.93,515.65Z" transform="translate(-561.85 -515.65)"></path></g></svg>